<?xml version="1.0" encoding="UTF-8" standalone="no"?>
<svg width="412px" height="312px" viewBox="0 0 412 312" version="1.1" xmlns="http://www.w3.org/2000/svg" xmlns:xlink="http://www.w3.org/1999/xlink" xmlns:sketch="http://www.bohemiancoding.com/sketch/ns">
    <title>Slice 1</title>
    <description>Created with Sketch (http://www.bohemiancoding.com/sketch)</description>
    <defs></defs>
    <g id="Page 1" stroke="none" stroke-width="1" fill="none" fill-rule="evenodd">
        <g id="Slice 1" fill="#CB94CB">
            <g id="Page 1">
                <path d="M379,32.5 L379,279.5 L32,279.5 L32,32.5 L379,32.5 L379,32.5 Z M412,0.5 L0,0.5 L0,311.5 L412,311.5 L412,0.5 L412,0.5 Z M254.422,121.9 C254.422,148.41 232.932,169.9 206.422,169.9 C179.912,169.9 158.422,148.41 158.422,121.9 C158.422,95.39 179.912,73.9 206.422,73.9 C232.932,73.9 254.422,95.39 254.422,121.9 L254.422,121.9 L254.422,121.9 Z M246.04,172.163 C234.853,180.997 220.987,185.899 206.422,185.899 C191.688,185.899 177.687,180.881 166.448,171.879 C136.827,182.748 123.599,220.75 123.599,238.1 L288.4,238.1 C288.4,220.899 275.071,183.171 246.04,172.163 L246.04,172.163 L246.04,172.163 Z M246.04,172.163" id="picture-3-icon"></path>
            </g>
        </g>
    </g>
</svg>