<?xml version="1.0" encoding="UTF-8" standalone="no"?>
<svg width="100px" height="71px" viewBox="0 0 100 71" version="1.1" xmlns="http://www.w3.org/2000/svg" xmlns:xlink="http://www.w3.org/1999/xlink" xmlns:sketch="http://www.bohemiancoding.com/sketch/ns">
    <title>Untitled 4</title>
    <description>Created with Sketch (http://www.bohemiancoding.com/sketch)</description>
    <defs></defs>
    <g id="Page-1" stroke="none" stroke-width="1" fill="none" fill-rule="evenodd" sketch:type="MSPage">
        <g id="camera" sketch:type="MSLayerGroup" transform="translate(0.000000, 1.000000)" fill="#2EAE9B">
            <g id="Page-1" sketch:type="MSShapeGroup">
                <g id="Layer_1">
                    <path d="M58.823,13.958 C66.778,13.958 73.685,18.339 77.498,24.792 L99.974,24.818 L99.974,12.637 C99.974,8.104 96.327,4.427 91.853,4.427 L8.096,4.427 C3.608,4.427 0,8.104 0,12.637 L0.023,24.715 L40.135,24.742 C43.975,18.312 50.854,13.958 58.823,13.958" id="path2780"></path>
                    <path d="M23.191,0.239 L13.27,0.239 L11.51,4.427 L24.8,4.427 L23.191,0.239 L23.191,0.239 L23.191,0.239 L23.191,0.239 Z M23.191,0.239" id="path2784" stroke="#2EAE9B" stroke-width="2"></path>
                    <path d="M80.64,37.025 C80.64,49.205 70.87,59.092 58.824,59.092 C46.762,59.092 36.995,49.204 36.995,37.025 C36.995,33.783 37.718,30.737 38.971,27.956 L0,27.956 L0,61.208 C0,65.715 3.608,69.392 8.096,69.392 L91.852,69.392 C96.326,69.392 99.973,65.715 99.973,61.208 L100,27.97 L78.663,27.97 C79.906,30.737 80.64,33.783 80.64,37.025 C80.64,37.025 80.64,33.783 80.64,37.025 L80.64,37.025 L80.64,37.025 Z M80.64,37.025" id="path2788"></path>
                    <path d="M71.7823388,28.3231138 C71.4130884,27.659111 70.9477467,27.0361361 70.4413771,26.4433921 C67.691434,23.0963864 63.5756966,20.896 58.9384741,20.896 C54.2861361,20.896 50.1703986,23.0834302 47.4204555,26.4153205 C46.9151656,27.0231799 46.4487442,27.6461548 46.0525019,28.3231138 C44.6726718,30.6195916 43.837,33.2734432 43.837,36.1507885 C43.837,44.5593307 50.5957923,51.3893819 58.9384741,51.3893819 C67.240128,51.3893819 74,44.5593307 74,36.1507885 C73.9989203,33.2745229 73.1783641,30.6206713 71.7823388,28.3231138" id="path2790"></path>
                </g>
            </g>
        </g>
    </g>
</svg>