<?xml version="1.0" encoding="UTF-8" standalone="no"?>
<svg width="412px" height="412px" viewBox="0 0 412 412" version="1.1" xmlns="http://www.w3.org/2000/svg" xmlns:xlink="http://www.w3.org/1999/xlink" xmlns:sketch="http://www.bohemiancoding.com/sketch/ns">
    <title>Slice 1</title>
    <description>Created with Sketch (http://www.bohemiancoding.com/sketch)</description>
    <defs></defs>
    <g id="Page 1" stroke="none" stroke-width="1" fill="none" fill-rule="evenodd">
        <path d="M412.001,411.323 L0.001,411.323 C-1.119,346.177 29.423,277.846 118.7,230.583 C100.692,211.589 78.58,178.241 78.58,129.052 C78.58,58.265 136.169,0.677 206.954,0.677 C277.739,0.677 335.328,58.265 335.328,129.052 C335.328,178.8 312.669,212.294 294.136,231.363 C379.586,274.917 413.139,345.13 412.001,411.323 L412.001,411.323 Z M44.089,371.206 L367.863,371.206 C348.585,282.751 253.586,265.585 247.544,236.27 C240.883,203.954 295.211,200.145 295.211,129.051 C295.211,80.385 255.619,40.793 206.954,40.793 C158.289,40.793 118.697,80.385 118.697,129.051 C118.697,199.166 171.409,203.66 164.947,235.34 C158.81,265.431 63.122,281.763 44.089,371.206 L44.089,371.206 Z M44.089,371.206" id="user-7-icon" fill="#777777"></path>
    </g>
</svg>